Coordinates
version=1
nRows=39
nColumns=18
inDegrees=yes

Units are S.I. units (second, meters, Newtons, ...)
If the header above contains a line with 'inDegrees', this indicates whether rotational values are in degrees (yes) or radians (no).

endheader
time	ground_thorax_rot_x	ground_thorax_rot_y	ground_thorax_rot_z	ground_thorax_tx	ground_thorax_ty	ground_thorax_tz	clav_prot	clav_elev	scapula_abduction	scapula_elevation	scapula_upward_rot	scapula_winging	plane_elv	shoulder_elv	axial_rot	elbow_flexion	pro_sup
      2.11000000	      0.11272515	     -2.02554258	    -10.02852345	      0.00000000	      0.00000000	      0.00000000	    -39.28146484	      6.86500679	    -17.44946446	     -3.58069517	     49.66688728	     -9.52519552	    -12.49881391	     58.14268215	      0.42464154	      0.00000000	     34.32000000
      2.12000000	      0.41241975	     -2.14114606	    -10.06228907	      0.00000000	      0.00000000	      0.00000000	    -39.38954527	      7.24399671	    -17.19371528	     -3.38061423	     50.36877217	     -9.76306967	    -11.93918273	     58.71835962	      0.53105676	      0.00000000	     34.32000000
      2.13000000	      0.13765806	     -2.02664647	    -10.03275073	      0.00000000	      0.00000000	      0.00000000	    -39.49179900	      7.19492556	    -17.10280950	     -3.44292845	     50.66366441	     -9.82922160	    -11.75051516	     59.14754554	      0.55799214	      0.00000000	     34.32000000
      2.14000000	      0.52626364	     -2.13357532	    -10.10020058	      0.00000000	      0.00000000	      0.00000000	    -39.53254035	      7.49745448	    -16.66066343	     -3.29052149	     51.42991363	    -10.01139365	    -11.41562043	     59.91790601	      0.61612858	      0.00000000	     34.32000000
      2.15000000	      0.26008726	     -2.00189329	    -10.02598721	      0.00000000	      0.00000000	      0.00000000	    -39.62188298	      7.36040447	    -16.52265250	     -3.40978094	     51.71901796	    -10.04323193	    -11.25699741	     60.32887360	      0.64605968	      0.00000000	     34.32000000
      2.16000000	      0.42258903	     -2.18333278	    -10.12488955	      0.00000000	      0.00000000	      0.00000000	    -39.57856990	      7.38733281	    -16.00463386	     -3.42320032	     52.29102331	    -10.08037735	    -10.98331543	     61.10411906	      0.78405232	      0.00000000	     34.32000000
      2.17000000	      0.41769127	     -2.17346592	    -10.13576215	      0.00000000	      0.00000000	      0.00000000	    -39.74621410	      7.57017278	    -16.00400554	     -3.33555011	     52.70361923	    -10.25255486	    -10.46137551	     61.53546364	      0.81547533	      0.00000000	     34.32000000
      2.18000000	      0.48997022	     -2.11394174	    -10.14974027	      0.00000000	      0.00000000	      0.00000000	    -39.99230388	      7.94640823	    -16.17110709	     -3.12301063	     53.14704033	    -10.52144223	     -9.90968210	     61.93671377	      0.72400273	      0.00000000	     34.32000000
      2.19000000	      0.47870137	     -2.12498251	    -10.15715495	      0.00000000	      0.00000000	      0.00000000	    -40.11832556	      8.21491843	    -16.16524079	     -2.97019688	     53.52160344	    -10.69075752	     -9.46211063	     62.43607404	      0.56897666	      0.00000000	     34.32000000
      2.20000000	      0.40929957	     -2.28848679	    -10.17748098	      0.00000000	      0.00000000	      0.00000000	    -40.08141476	      8.27246971	    -15.82431157	     -2.94756551	     53.89744808	    -10.71607588	     -9.20036360	     63.07810390	      0.42354276	      0.00000000	     34.32000000
      2.21000000	      0.42790308	     -2.60401529	    -10.17627370	      0.00000000	      0.00000000	      0.00000000	    -39.98181828	      8.36520753	    -15.25926279	     -2.90336770	     54.44199679	    -10.72959174	     -9.05747369	     63.77382902	      0.31111225	      0.00000000	     34.32000000
      2.22000000	      0.18981329	     -2.60917666	    -10.19793594	      0.00000000	      0.00000000	      0.00000000	    -40.08625368	      8.23165271	    -15.10833219	     -3.01802103	     54.77734908	    -10.76956636	     -8.75577527	     64.25793378	      0.32541594	      0.00000000	     34.32000000
      2.23000000	      0.15681453	     -2.71264069	    -10.33082749	      0.00000000	      0.00000000	      0.00000000	    -40.20320541	      8.20083530	    -14.98413070	     -3.06461768	     55.14979635	    -10.84585145	     -8.23323062	     64.87207386	      0.33666631	      0.00000000	     34.32000000
      2.24000000	      0.44471523	     -2.75104593	    -10.30361124	      0.00000000	      0.00000000	      0.00000000	    -40.46878679	      8.68692347	    -15.10389643	     -2.77970924	     55.73781634	    -11.15504455	     -7.53740417	     65.23394969	      0.14283631	      0.00000000	     34.32000000
      2.25000000	      0.43386068	     -2.80753544	    -10.33604464	      0.00000000	      0.00000000	      0.00000000	    -40.63133079	      8.90126850	    -15.18367869	     -2.65946459	     56.05391352	    -11.31747855	     -6.93750279	     65.56558657	     -0.00178818	      0.00000000	     34.32000000
      2.26000000	      0.43684597	     -2.89962036	    -10.31766159	      0.00000000	      0.00000000	      0.00000000	    -40.69491412	      9.17883326	    -15.07171283	     -2.49075885	     56.44028459	    -11.44609124	     -6.59057069	     65.97686921	     -0.16564910	      0.00000000	     34.32000000
      2.27000000	      0.44294813	     -2.98535721	    -10.29139787	      0.00000000	      0.00000000	      0.00000000	    -40.69392853	      9.37111412	    -14.79162905	     -2.37541497	     56.86942010	    -11.51776599	     -6.46731426	     66.55726998	     -0.37077532	      0.00000000	     34.32000000
      2.28000000	      0.27643456	     -2.95766117	    -10.33234140	      0.00000000	      0.00000000	      0.00000000	    -40.77895642	      9.23985577	    -14.67014448	     -2.47937923	     57.12922882	    -11.54227197	     -6.24326508	     67.10723064	     -0.35687041	      0.00000000	     34.32000000
      2.29000000	      0.43378034	     -3.09636544	    -10.38630971	      0.00000000	      0.00000000	      0.00000000	    -40.74162368	      9.36508415	    -14.41469032	     -2.40092474	     57.42615568	    -11.56826630	     -6.04805732	     67.89987305	     -0.51749143	      0.00000000	     34.32000000
      2.30000000	      0.39413957	     -3.10248595	    -10.44772907	      0.00000000	      0.00000000	      0.00000000	    -40.83464619	      9.44471069	    -14.52278320	     -2.35702690	     57.51142780	    -11.64282700	     -5.58485502	     68.34870155	     -0.61891515	      0.00000000	     34.32000000
      2.31000000	      0.38102961	     -3.08620018	    -10.48202805	      0.00000000	      0.00000000	      0.00000000	    -41.03020696	      9.68281861	    -14.82361947	     -2.21522558	     57.63112395	    -11.81568541	     -4.93334705	     68.59510522	     -0.69318454	      0.00000000	     34.32000000
      2.32000000	      0.25745659	     -3.25891147	    -10.52366018	      0.00000000	      0.00000000	      0.00000000	    -41.11137350	      9.80074413	    -14.84350617	     -2.14735728	     57.81894604	    -11.89814906	     -4.37067284	     68.87826084	     -0.71211238	      0.00000000	     34.32000000
      2.33000000	      0.59186250	     -3.27739175	    -10.56872389	      0.00000000	      0.00000000	      0.00000000	    -41.62581683	     10.14694950	    -15.37921572	     -1.96814792	     58.32380747	    -12.29318308	     -3.30542446	     69.17322085	     -0.72284020	      0.00000000	     34.32000000
      2.34000000	      0.24836038	     -3.51620386	    -10.54194885	      0.00000000	      0.00000000	      0.00000000	    -41.73793246	     10.09428476	    -15.34110459	     -2.01826681	     58.56722296	    -12.35295859	     -3.17055140	     69.52458157	     -0.71420376	      0.00000000	     34.32000000
      2.35000000	      0.34476107	     -4.03109995	    -10.65519472	      0.00000000	      0.00000000	      0.00000000	    -41.71945462	     10.11107980	    -14.74507276	     -2.02062649	     59.27548707	    -12.36947976	     -3.69416559	     70.46843439	     -0.83483107	      0.00000000	     34.32000000
      2.36000000	     -0.04350402	     -4.10986605	    -10.85479699	      0.00000000	      0.00000000	      0.00000000	    -41.90049480	      9.68564074	    -14.69405210	     -2.32544937	     59.50742006	    -12.37189052	     -4.17101331	     71.39122850	     -0.81998343	      0.00000000	     34.32000000
      2.37000000	     -0.22579199	     -4.33110085	    -10.95697865	      0.00000000	      0.00000000	      0.00000000	    -41.97688339	      9.50890091	    -14.31860008	     -2.45920682	     60.04766405	    -12.38278063	     -4.84926546	     72.29383361	     -0.88460672	      0.00000000	     34.32000000
      2.38000000	     -0.38919443	     -4.46872335	    -10.88455281	      0.00000000	      0.00000000	      0.00000000	    -42.08788180	      9.50265142	    -14.11707441	     -2.47818995	     60.51497412	    -12.45373438	     -5.21057472	     73.01566577	     -0.89189147	      0.00000000	     34.32000000
      2.39000000	     -0.40540916	     -4.93836398	    -11.06728458	      0.00000000	      0.00000000	      0.00000000	    -41.95209588	      9.38528452	    -13.36476112	     -2.55297410	     61.13117528	    -12.35451606	     -6.05641987	     73.79969273	     -1.01736235	      0.00000000	     34.32000000
      2.40000000	     -0.49162971	     -5.17219332	    -11.00981574	      0.00000000	      0.00000000	      0.00000000	    -42.00546454	      9.34710825	    -13.10402830	     -2.58574312	     61.54517849	    -12.37848842	     -6.18147874	     74.39392965	     -1.05455864	      0.00000000	     34.32000000
      2.41000000	     -0.10891479	     -5.88421958	    -10.93167047	      0.00000000	      0.00000000	      0.00000000	    -41.66324970	      9.65986252	    -11.85257613	     -2.35135731	     62.54690810	    -12.27068972	     -7.06307546	     75.34963512	     -1.87780357	      0.00000000	     34.32000000
      2.42000000	     -0.11277948	     -5.98436267	    -10.96213141	      0.00000000	      0.00000000	      0.00000000	    -41.81156904	      9.71309750	    -11.77879155	     -2.32663331	     62.95663891	    -12.36823068	     -7.11531103	     75.83784775	     -2.30035530	      0.00000000	     34.32000000
      2.43000000	     -0.15620599	     -6.05955232	    -10.96681161	      0.00000000	      0.00000000	      0.00000000	    -41.96356107	      9.94617117	    -11.81048910	     -2.18050968	     63.31853273	    -12.51332073	     -7.17646567	     76.14720465	     -2.79429917	      0.00000000	     34.32000000
      2.44000000	     -0.20499940	     -6.09328996	    -10.85017922	      0.00000000	      0.00000000	      0.00000000	    -42.13331345	     10.32597344	    -11.93910716	     -1.93680016	     63.65819090	    -12.70399899	     -7.09275818	     76.40264403	     -3.29444500	      0.00000000	     34.32000000
      2.45000000	     -0.21028059	     -6.12378393	    -10.89188273	      0.00000000	      0.00000000	      0.00000000	    -42.33214785	     10.55153092	    -12.01885367	     -1.79817854	     64.05198733	    -12.87108524	     -6.98588530	     76.77821439	     -3.71213990	      0.00000000	     34.32000000
      2.46000000	     -0.29614715	     -6.11131981	    -10.97655235	      0.00000000	      0.00000000	      0.00000000	    -42.54925219	     10.70945129	    -12.17739638	     -1.70650472	     64.35596427	    -13.03350336	     -6.81689997	     77.03362375	     -3.76315581	      0.00000000	     34.32000000
      2.47000000	     -0.29677600	     -6.18577356	    -11.01382545	      0.00000000	      0.00000000	      0.00000000	    -42.66796314	     10.91950747	    -12.17982987	     -1.57166026	     64.67972016	    -13.14887916	     -6.68392991	     77.35561351	     -3.79020584	      0.00000000	     34.32000000
      2.48000000	     -0.52635395	     -6.23769421	    -11.06127608	      0.00000000	      0.00000000	      0.00000000	    -42.69450556	     10.94979520	    -12.16663996	     -1.55233838	     64.76202466	    -13.17032314	     -6.64413211	     77.50182037	     -3.79217228	      0.00000000	     34.32000000
      2.49000000	     -0.52104896	     -6.55913634	    -11.13975877	      0.00000000	      0.00000000	      0.00000000	    -42.59589830	     10.68853994	    -11.58048886	     -1.71356747	     65.17987148	    -13.04012826	     -6.60253050	     78.09777927	     -3.61758880	      0.00000000	     34.32000000
